<svg xmlns="http://www.w3.org/2000/svg" viewBox="0 0 64 64" role="img" aria-label="Saloni Cleaning Products favicon">
  <defs>
    <linearGradient id="g" x1="8" x2="56" y1="8" y2="56" gradientUnits="userSpaceOnUse">
      <stop stop-color="#0e9f8f"/>
      <stop offset="1" stop-color="#39aee8"/>
    </linearGradient>
  </defs>
  <rect width="64" height="64" rx="18" fill="url(#g)"/>
  <path fill="#fff" d="M20 43c3 3 7 5 12 5 8 0 13-4 13-10 0-5-3-8-11-10-6-2-8-3-8-6 0-2 2-4 6-4s7 1 10 4l3-6c-3-3-7-4-12-4-8 0-13 4-13 10 0 6 4 8 11 10 6 2 8 3 8 6 0 2-2 4-7 4-4 0-8-2-11-5l-1 6Z"/>
</svg>
